<?xml version="1.0" encoding="UTF-8" standalone="no"?><!-- Generator: Gravit.io --><svg xmlns="http://www.w3.org/2000/svg" xmlns:xlink="http://www.w3.org/1999/xlink" style="isolation:isolate" viewBox="0 0 200 200" width="200pt" height="200pt"><defs><clipPath id="_clipPath_BsNUJ11vSLXGo9vfP3lJkoEc7zZqdeuj"><rect width="200" height="200"/></clipPath></defs><g clip-path="url(#_clipPath_BsNUJ11vSLXGo9vfP3lJkoEc7zZqdeuj)"><path d=" M 117.5 35 C 153.374 35 182.5 64.126 182.5 100 C 182.5 135.874 153.374 165 117.5 165 C 81.626 165 52.5 135.874 52.5 100 L 52.5 100 L 52.5 62 L 70 62 L 70 100 L 69.833 100 C 69.833 126.308 91.192 147.667 117.5 147.667 C 143.808 147.667 165.167 126.308 165.167 100 C 165.167 73.692 143.808 52.333 117.5 52.333 L 117.5 52.64 L 17.5 52.64 L 17.5 35 L 117.5 35 L 117.5 35 Z " fill-rule="evenodd" fill="rgb(66,133,244)"/></g></svg>